<svg width="18" height="24" viewBox="0 0 18 24" fill="none" xmlns="http://www.w3.org/2000/svg">
<path fill-rule="evenodd" clip-rule="evenodd" d="M16.9639 7.53172H11.4476V0.43208C11.4483 0.31767 11.4971 0.208118 11.5834 0.127217C11.6698 0.0463158 11.7867 0.000600591 11.9089 0H12.7398C12.7411 1.16446 13.2358 2.28079 14.1153 3.10365C14.9948 3.92651 16.187 4.38857 17.43 4.38826V7.53057L16.9639 7.53172ZM17.4251 10.0373C17.4251 12.9979 16.7028 15.1995 15.2582 16.642C13.8135 18.0846 11.5863 18.8028 8.57664 18.7967C7.40911 18.875 6.237 18.7238 5.13553 18.3527C4.03406 17.9817 3.02757 17.399 2.18064 16.642C0.727044 15.204 0.000652096 13.036 0.00146553 10.1379V0.41265C0.00146553 0.35846 0.0128583 0.3048 0.0349941 0.254735C0.0571299 0.20467 0.0895745 0.15918 0.130476 0.120862C0.171378 0.0825436 0.219935 0.0521484 0.273376 0.0314108C0.326816 0.0106731 0.384094 0 0.441938 0H5.54092C5.65745 0.00089606 5.76893 0.0446581 5.85133 0.121852C5.93372 0.199045 5.98044 0.303486 5.9814 0.41265V10.3505C5.91854 11.3084 6.1656 12.2617 6.6903 13.0859C6.92649 13.3791 7.231 13.618 7.58063 13.7843C7.93026 13.9506 8.31579 14.04 8.70786 14.0456C9.09993 14.0512 9.4882 13.973 9.8431 13.8168C10.198 13.6606 10.5102 13.4305 10.7558 13.1442C11.2763 12.344 11.5192 11.4123 11.4513 10.4774V8.61879H17.43V10.0373H17.4251Z" fill="#1F3E79"/>
<path fill-rule="evenodd" clip-rule="evenodd" d="M13.9102 0H16.9605C17.0827 0.000301721 17.1999 0.0459199 17.2863 0.126886C17.3727 0.207852 17.4214 0.317578 17.4217 0.43208V3.29548C16.4898 3.29548 15.596 2.94864 14.9369 2.33126C14.2779 1.71388 13.9077 0.876535 13.9077 0.00342734L13.9102 0Z" fill="#F4821F"/>
<path fill-rule="evenodd" clip-rule="evenodd" d="M1.00094 23.523C1.13044 23.5403 1.26243 23.5303 1.38727 23.4937C1.51211 23.4571 1.62665 23.3948 1.72253 23.3115C1.81841 23.2281 1.89321 23.1258 1.94146 23.0119C1.98972 22.898 2.01022 22.7754 2.00146 22.6531V21.4083H1.51462V22.6406C1.51462 22.7697 1.45986 22.8936 1.36238 22.9849C1.2649 23.0762 1.1327 23.1275 0.994843 23.1275C0.856989 23.1275 0.72478 23.0762 0.627302 22.9849C0.529824 22.8936 0.475061 22.7697 0.475061 22.6406V21.4083H0.00164402V22.6543C-0.00632028 22.7761 0.0147222 22.898 0.0632461 23.0112C0.11177 23.1244 0.186561 23.2262 0.282207 23.309C0.377853 23.3918 0.49196 23.4537 0.616266 23.4901C0.740573 23.5265 0.871969 23.5366 1.00094 23.5196V23.523ZM4.91517 23.4841V23.0955H3.8451L4.89198 21.7627V21.4083H3.22283V21.7981H4.26971L3.22283 23.1264V23.4841H4.91029H4.91517ZM7.16999 23.523C7.36023 23.5267 7.54781 23.4807 7.71178 23.3903C7.87575 23.2999 8.00965 23.1685 8.09852 23.0109L7.691 22.828C7.64171 22.9182 7.56696 22.9941 7.47489 23.0473C7.38282 23.1005 7.27695 23.129 7.16878 23.1298C6.98934 23.1116 6.82342 23.0319 6.70287 22.906C6.58232 22.7802 6.51565 22.617 6.51565 22.4479C6.51565 22.2789 6.58232 22.1157 6.70287 21.9899C6.82342 21.864 6.98934 21.7843 7.16878 21.7661C7.27693 21.7676 7.38262 21.7966 7.47458 21.8499C7.56655 21.9033 7.64134 21.979 7.691 22.069L8.09852 21.8815C8.00976 21.7242 7.87574 21.5932 7.71164 21.5035C7.54754 21.4138 7.35991 21.369 7.16999 21.374C6.86581 21.374 6.57408 21.4872 6.35899 21.6887C6.1439 21.8902 6.02306 22.1635 6.02306 22.4485C6.02306 22.7335 6.1439 23.0068 6.35899 23.2083C6.57408 23.4098 6.86581 23.523 7.16999 23.523ZM11.2929 23.4841L10.4388 21.4083H9.84943L8.99533 23.4841H9.53463L9.67251 23.1332H10.6242L10.7609 23.4841H11.2929ZM10.49 22.7434H9.79819L10.1435 21.8507L10.49 22.7434ZM14.4799 24.0008L13.6673 22.6886C13.8129 22.6563 13.9416 22.5769 14.0309 22.4644C14.1202 22.3519 14.1642 22.2135 14.1553 22.0736C14.1591 21.9824 14.1422 21.8914 14.1057 21.8068C14.0692 21.7221 14.014 21.6457 13.9436 21.5825C13.8733 21.5193 13.7895 21.4708 13.6977 21.4402C13.6059 21.4096 13.5082 21.3975 13.411 21.4049H12.3739V23.4807H12.8461V22.7423H13.1914L13.9418 23.9997H14.4835L14.4799 24.0008ZM13.3366 22.3536H12.8485V21.7935H13.3366C13.3781 21.79 13.42 21.7946 13.4595 21.8071C13.499 21.8196 13.5353 21.8396 13.5661 21.866C13.5969 21.8923 13.6215 21.9244 13.6383 21.9601C13.6551 21.9959 13.6638 22.0345 13.6638 22.0736C13.6638 22.1126 13.6551 22.1513 13.6383 22.187C13.6215 22.2228 13.5969 22.2548 13.5661 22.2812C13.5353 22.3075 13.499 22.3276 13.4595 22.3401C13.42 22.3525 13.3781 22.3572 13.3366 22.3536ZM16.2515 23.4796C16.4014 23.4862 16.5511 23.4642 16.6917 23.415C16.8322 23.3658 16.9606 23.2904 17.0692 23.1934C17.1777 23.0964 17.2641 22.9797 17.3232 22.8505C17.3822 22.7213 17.4127 22.5822 17.4127 22.4417C17.4127 22.3011 17.3822 22.162 17.3232 22.0328C17.2641 21.9036 17.1777 21.7869 17.0692 21.6899C16.9606 21.5929 16.8322 21.5175 16.6917 21.4683C16.5511 21.4191 16.4014 21.3972 16.2515 21.4037H15.3755V23.4796H16.2515ZM16.2515 23.0898H15.8489V21.7992H16.2515C16.3445 21.7928 16.4378 21.8051 16.5252 21.8355C16.6126 21.8659 16.6919 21.9136 16.7578 21.9753C16.8237 22.0371 16.8746 22.1114 16.9071 22.1933C16.9395 22.2751 16.9527 22.3626 16.9458 22.4497C16.9496 22.5359 16.9342 22.622 16.9006 22.7024C16.8669 22.7827 16.8157 22.8556 16.7503 22.9164C16.6848 22.9772 16.6065 23.0245 16.5204 23.0554C16.4344 23.0862 16.3424 23.0999 16.2503 23.0955L16.2515 23.0898ZM18 21.3637C18.0002 21.4402 17.9762 21.5151 17.931 21.5788C17.8858 21.6425 17.8214 21.6922 17.746 21.7216C17.6706 21.751 17.5875 21.7587 17.5074 21.7439C17.4273 21.729 17.3537 21.6922 17.296 21.6381C17.2382 21.584 17.1989 21.515 17.183 21.44C17.1672 21.3649 17.1754 21.2871 17.2068 21.2165C17.2382 21.1459 17.2912 21.0855 17.3592 21.0432C17.4272 21.0008 17.5071 20.9783 17.5888 20.9785H18V21.3637Z" fill="#1F3E79"/>
</svg>
