<svg width="36" height="36" viewBox="0 0 36 36" fill="none" xmlns="http://www.w3.org/2000/svg">
<path d="M28 0H8C3.58172 0 0 3.58471 0 8.00667V27.9933C0 32.4153 3.58172 36 8 36H28C32.4183 36 36 32.4153 36 27.9933V8.00667C36 3.58471 32.4183 0 28 0Z" fill="white"/>
<path fill-rule="evenodd" clip-rule="evenodd" d="M20.245 15.899H25.664L26.116 15.902V12.602C24.8953 12.6023 23.7244 12.1179 22.8605 11.2554C21.9967 10.3929 21.5106 9.22272 21.509 8.002H20.698C20.578 8.00253 20.4631 8.05042 20.3783 8.13526C20.2934 8.2201 20.2455 8.33502 20.245 8.455V15.899ZM23.989 25.453C25.4077 23.9403 26.117 21.6317 26.117 18.527L26.12 17.039H20.248V18.985C20.3155 19.9665 20.0769 20.9448 19.565 21.785C19.3236 22.0852 19.0169 22.3263 18.6683 22.4901C18.3197 22.6539 17.9382 22.736 17.5531 22.7301C17.168 22.7242 16.7892 22.6305 16.4457 22.4562C16.1023 22.2818 15.8031 22.0314 15.571 21.724C15.0541 20.86 14.8102 19.86 14.871 18.855V8.432C14.87 8.31758 14.824 8.20815 14.743 8.12733C14.662 8.04652 14.5524 8.00078 14.438 8H9.432C9.31751 8.00026 9.20778 8.04586 9.12682 8.12682C9.04586 8.20778 9.00027 8.31751 9 8.432V18.632C8.99933 21.6727 9.713 23.9463 11.141 25.453C12.569 26.9597 14.6637 27.713 17.425 27.713C20.3823 27.719 22.5703 26.9657 23.989 25.453ZM25.665 8.00195H22.665L22.666 8.00295C22.666 8.45628 22.7553 8.90516 22.9288 9.32398C23.1023 9.74279 23.3566 10.1233 23.6771 10.4439C23.9977 10.7644 24.3782 11.0187 24.797 11.1922C25.2158 11.3657 25.6647 11.455 26.118 11.455V8.45495C26.1178 8.33489 26.07 8.21982 25.9851 8.13493C25.9002 8.05003 25.7851 8.00222 25.665 8.00195Z" fill="#0A050C"/>
</svg>
