<svg width="288" height="150" viewBox="0 0 288 150" fill="none" xmlns="http://www.w3.org/2000/svg">
<g clip-path="url(#clip0_12887:19727)">
<g opacity="0.5">
<path fill-rule="evenodd" clip-rule="evenodd" d="M-1.31721 128.402C10.876 130.732 20.4695 140.325 22.7999 152.519C25.1304 140.325 34.7239 130.732 46.9171 128.402C34.7239 126.071 25.1304 116.478 22.7999 104.284C20.4695 116.478 10.876 126.071 -1.31721 128.402ZM-6.00006 127.879C9.38243 127.327 21.7249 114.984 22.277 99.6016H23.3229C23.875 114.984 36.2175 127.327 51.5999 127.879V128.925C36.2175 129.477 23.875 141.819 23.3229 157.202H22.277C21.7249 141.819 9.38243 129.477 -6.00006 128.925V127.879Z" fill="white"/>
</g>
<g opacity="0.25">
<g opacity="0.5">
<path fill-rule="evenodd" clip-rule="evenodd" d="M95.5227 98.2146C122.22 91.4693 150.499 101.762 166.614 124.09C159.869 97.3927 170.162 69.1136 192.489 52.9983C165.792 59.7436 137.513 49.4508 121.398 27.1231C128.143 53.8201 117.85 82.0993 95.5227 98.2146ZM85.6184 101.553C116.025 86.0232 129.267 49.6406 115.957 18.1993L118.059 17.2188C133.589 47.6251 169.972 60.8672 201.413 47.5571L202.394 49.6597C171.987 65.1897 158.745 101.572 172.055 133.014L169.953 133.994C154.423 103.588 118.04 90.3456 86.5988 103.656L85.6184 101.553Z" fill="white"/>
</g>
<g opacity="0.5">
<path fill-rule="evenodd" clip-rule="evenodd" d="M109.614 116.586C130.959 99.1904 160.938 96.5675 184.98 109.993C167.584 88.6477 164.961 58.6681 178.386 34.6266C157.041 52.0226 127.062 54.6455 103.02 41.2203C120.416 62.5653 123.039 92.5448 109.614 116.586ZM102.048 123.798C123.043 96.8727 119.668 58.3026 94.3174 35.4321L95.8086 33.6549C122.734 54.6491 161.304 51.2746 184.174 25.9239L185.952 27.4151C164.957 54.3403 168.332 92.9104 193.683 115.781L192.191 117.558C165.266 96.5639 126.696 99.9384 103.826 125.289L102.048 123.798Z" fill="white"/>
</g>
<g opacity="0.5">
<path fill-rule="evenodd" clip-rule="evenodd" d="M89.9405 75.035C116.987 80.2044 138.267 101.484 143.436 128.53C148.605 101.484 169.885 80.2044 196.931 75.035C169.885 69.8657 148.605 48.586 143.436 21.5396C138.267 48.586 116.987 69.8657 89.9405 75.035ZM79.5532 73.875C113.674 72.6504 141.051 45.273 142.276 11.1523H144.596C145.821 45.273 173.198 72.6504 207.319 73.875V76.195C173.198 77.4197 145.821 104.797 144.596 138.918H142.276C141.051 104.797 113.674 77.4197 79.5532 76.195V73.875Z" fill="white"/>
</g>
</g>
<path opacity="0.25" d="M278.4 -18C278.986 -1.68023 292.08 11.4143 308.4 12C292.08 12.5857 278.986 25.6802 278.4 42C277.814 25.6802 264.72 12.5857 248.4 12C264.72 11.4143 277.814 -1.68023 278.4 -18Z" fill="white"/>
</g>
<defs>
<clipPath id="clip0_12887:19727">
<rect width="288" height="150" fill="white"/>
</clipPath>
</defs>
</svg>
