<svg width="36" height="36" viewBox="0 0 36 36" fill="none" xmlns="http://www.w3.org/2000/svg">
<path d="M28 0H8C3.58172 0 0 3.58471 0 8.00667V27.9933C0 32.4153 3.58172 36 8 36H28C32.4183 36 36 32.4153 36 27.9933V8.00667C36 3.58471 32.4183 0 28 0Z" fill="white"/>
<path fill-rule="evenodd" clip-rule="evenodd" d="M12.1086 16.968C12.1086 23.74 15.8886 25.787 16.9086 26.216C16.9309 26.2253 16.9554 26.228 16.9792 26.2237C17.003 26.2194 17.025 26.2084 17.0427 26.192C17.0604 26.1756 17.073 26.1544 17.079 26.131C17.085 26.1076 17.0842 26.0829 17.0766 26.06C16.3898 24.05 15.9653 21.9597 15.8136 19.841C15.8136 18.717 15.8556 17.851 15.8556 17.851H23.2626V25.173C23.2626 25.173 23.6426 25.888 25.4516 25.888C27.2606 25.888 27.2606 25.173 27.2606 25.173V9.6C27.2606 9.6 27.4296 8 25.0306 8C22.0816 8 22.6156 9.03 23.1236 9.436C23.1927 9.49012 23.2488 9.55914 23.2875 9.63792C23.3263 9.71669 23.3468 9.8032 23.3476 9.891V14.734H15.8536C15.8536 14.734 15.8956 12.716 15.8956 12.04C15.9314 10.8714 16.0426 9.70629 16.2286 8.552C16.2342 8.5138 16.2309 8.47481 16.2188 8.43812C16.2068 8.40143 16.1864 8.36804 16.1592 8.34059C16.1321 8.31314 16.0989 8.29238 16.0623 8.27995C16.0258 8.26753 15.9868 8.26378 15.9486 8.269C14.9656 8.403 12.1086 9.437 12.1086 16.969V16.968ZM11.4986 20.24C13.7716 26.24 15.8266 26.909 16.4646 27.106L16.6796 27.176C16.69 27.1794 16.6994 27.1853 16.7071 27.193C16.7149 27.2008 16.7207 27.2103 16.7241 27.2207C16.7275 27.2311 16.7284 27.2421 16.7267 27.253C16.7251 27.2638 16.7209 27.2741 16.7146 27.283C16.4785 27.6105 16.1254 27.8347 15.7286 27.909C15.1352 28.0351 14.5219 28.0351 13.9286 27.909C13.3376 27.768 12.0346 27.783 9.66757 25.609C8.81735 24.8831 8.25007 23.8809 8.06536 22.7783C7.88065 21.6757 8.09033 20.5433 8.65757 19.58C9.20223 21.214 9.91084 22.7887 10.7726 24.28C12.4316 26.666 13.7386 26.836 13.7386 26.836C13.7386 26.836 11.2766 25.322 9.73057 19.483C8.34257 14.243 11.5306 11.623 11.5306 11.623C11.5306 11.623 10.1676 16.723 11.4996 20.241L11.4986 20.24Z" fill="#3D4C2F"/>
</svg>
