<svg width="23" height="24" viewBox="0 0 23 24" fill="none" xmlns="http://www.w3.org/2000/svg">
<path fill-rule="evenodd" clip-rule="evenodd" d="M4.86155 10.7535C4.86155 18.8816 9.33849 21.3426 10.5454 21.8526C10.5717 21.8635 10.6005 21.8666 10.6284 21.8615C10.6564 21.8564 10.6823 21.8432 10.7032 21.8236C10.724 21.8041 10.7388 21.7788 10.746 21.751C10.7532 21.7231 10.7523 21.6938 10.7435 21.6664C9.93006 19.2541 9.42713 16.7456 9.24723 14.2029C9.24723 12.8543 9.29645 11.8148 9.29645 11.8148H18.063V20.6026C18.063 20.6026 18.5121 21.4546 20.6545 21.4546C22.7969 21.4546 22.7969 20.6026 22.7969 20.6026V1.91824C22.7969 1.91824 22.9975 0 20.155 0C16.6628 0 17.2944 1.23664 17.8973 1.72349C17.9791 1.78836 18.0454 1.87106 18.0913 1.96545C18.1373 2.05985 18.1617 2.16352 18.1627 2.26877V8.08063H9.29165C9.29165 8.08063 9.3409 5.65849 9.3409 4.84666C9.38315 3.44427 9.51472 2.04611 9.7348 0.660908C9.74133 0.615097 9.73729 0.568402 9.723 0.52444C9.70871 0.480478 9.68453 0.440453 9.65241 0.407547C9.6203 0.374641 9.58111 0.349741 9.53789 0.334781C9.49467 0.319822 9.44862 0.315215 9.40335 0.321335C8.24449 0.478347 4.86155 1.71863 4.86155 10.7535ZM4.141 14.6812C6.83221 21.8855 9.26525 22.6851 10.0254 22.9213L10.28 23.0052C10.2923 23.0094 10.3036 23.0165 10.3127 23.0259C10.3219 23.0353 10.3287 23.0467 10.3327 23.0592C10.3367 23.0718 10.3377 23.0852 10.3356 23.0982C10.3336 23.1112 10.3285 23.1236 10.3208 23.1343C10.0415 23.5277 9.62353 23.797 9.15356 23.8864C8.45088 24.0378 7.72465 24.0378 7.02197 23.8864C6.32185 23.7173 4.77988 23.7355 1.97819 21.1211C0.970444 20.2507 0.297637 19.0481 0.0780061 17.7247C-0.141625 16.4014 0.105973 15.0419 0.777295 13.8852C1.42185 15.8473 2.26078 17.7383 3.28119 19.5291C5.24586 22.393 6.7938 22.5963 6.7938 22.5963C6.7938 22.5963 3.87802 20.7791 2.04665 13.772C0.402624 7.48422 4.17585 4.33912 4.17585 4.33912C4.17585 4.33912 2.56184 10.4553 4.13862 14.68L4.141 14.6812Z" fill="url(#paint0_linear_13045_15339)"/>
<defs>
<linearGradient id="paint0_linear_13045_15339" x1="24.1908" y1="16.08" x2="3.25431" y2="8.15487" gradientUnits="userSpaceOnUse">
<stop stop-color="#F9B340"/>
<stop offset="0.639" stop-color="#F9B340"/>
<stop offset="0.761" stop-color="#F9F5C7"/>
<stop offset="0.89" stop-color="#F9B340"/>
<stop offset="1" stop-color="#F9B340"/>
</linearGradient>
</defs>
</svg>
