<svg width="83" height="24" viewBox="0 0 83 24" fill="none" xmlns="http://www.w3.org/2000/svg">
<g clip-path="url(#clip0_13604_16137)">
<path fill-rule="evenodd" clip-rule="evenodd" d="M82.323 9.94283C82.9059 10.7769 82.9645 12.0914 82.3459 13.1102C81.7935 14.02 78.4876 17.5115 77.4118 18.6335C76.4792 19.6081 75.2205 20.584 73.9817 20.584H48.0424C44.5367 20.584 44.3252 19.3954 44.3252 16.7082V5.80736C44.3252 3.06283 45.1352 2.26953 47.5292 2.26953H73.9817C75.2205 2.26953 76.323 2.90191 77.5893 4.18953C78.6643 5.28218 81.8758 9.30116 82.323 9.94283Z" fill="#33CCCC"/>
<path fill-rule="evenodd" clip-rule="evenodd" d="M82.323 9.94283C82.9059 10.7769 82.9645 12.0914 82.3459 13.1102C81.7935 14.02 78.4876 17.5115 77.4118 18.6335C76.4792 19.6081 75.2205 20.584 73.9817 20.584H48.0424C44.5367 20.584 44.3252 19.3954 44.3252 16.7082V5.80736C44.3252 3.06283 45.1352 2.26953 47.5292 2.26953H73.9817C75.2205 2.26953 76.323 2.90191 77.5893 4.18953C78.6643 5.28218 81.8758 9.30116 82.323 9.94283Z" fill="url(#paint0_linear_13604_16137)"/>
<path fill-rule="evenodd" clip-rule="evenodd" d="M50.2054 6.48345V6.41168C50.2054 6.06121 50.176 5.71477 49.6018 5.71477H47.434C46.9301 5.71477 46.8983 5.9934 46.8983 6.42631V9.30715C47.9535 7.7982 49.1236 7.09709 50.2054 6.48345ZM64.7481 16.8931V16.7384H64.7496V9.80468C64.7496 6.89694 63.4714 5.44322 60.9149 5.44353C60.2064 5.43687 59.5101 5.62724 58.9035 5.9934C58.295 6.36018 57.7103 6.87251 57.1494 7.53039C56.8738 6.81547 56.4581 6.28894 55.9024 5.9508C55.3466 5.61267 54.6264 5.44358 53.742 5.44353C52.7183 5.44353 51.5281 5.80216 50.6845 6.4961C50.4958 6.68513 46.8978 9.51706 46.8978 12.4256V16.8646C46.8978 17.0058 46.8297 17.5414 47.4299 17.5414H49.6867C50.3883 17.5414 50.3198 17.082 50.3198 16.8931V9.71348C50.7007 9.20818 51.4791 7.96025 52.7433 7.96025C53.2285 7.96025 53.578 8.12447 53.7916 8.4529C54.0053 8.78134 54.1125 9.33202 54.1135 10.1049V15.7126H54.1108V16.8648C54.1108 17.006 54.0427 17.5416 54.6426 17.5416H56.8707C57.5727 17.5416 57.5042 17.0822 57.5042 16.8932V16.7385H57.5068V9.71378C57.9149 9.20848 58.7282 7.96056 59.9296 7.96056C60.424 7.96056 60.7805 8.12478 60.9992 8.45321C61.2179 8.78164 61.3271 9.33232 61.3268 10.1052V15.7129H61.3245V16.8651C61.3245 17.0063 61.2567 17.5419 61.8571 17.5419H64.1146C64.8166 17.5416 64.7481 17.082 64.7481 16.8931ZM77.177 14.074C76.3747 16.2329 74.4525 17.4393 72.0707 17.4393C68.6208 17.4393 66.342 15.0885 66.342 11.5626C66.342 8.07926 68.7077 5.55439 71.9633 5.55439C75.1839 5.55439 77.3439 7.79728 77.481 11.4102C77.4985 11.8719 77.3637 12.2797 76.7869 12.2797H69.4665C69.51 14.2171 70.4441 15.2621 72.0928 15.2621C73.0985 15.2621 73.6944 14.8285 74.2132 13.9788C74.4387 13.609 74.9012 13.6296 74.9012 13.6296H76.7869C77.0947 13.6294 77.2311 13.9302 77.177 14.0738V14.074ZM71.9633 7.79591C70.5949 7.79591 69.6403 8.75355 69.4665 10.3216H74.3717C74.2414 8.95005 73.5031 7.79591 71.9633 7.79591Z" fill="white"/>
<path fill-rule="evenodd" clip-rule="evenodd" d="M13.9737 2.36812C13.6837 1.90603 13.3075 1.50406 12.8657 1.18412C12.4239 0.8737 11.9387 0.630305 11.4257 0.461837C10.856 0.276253 10.2675 0.153992 9.67097 0.0972653C8.98853 0.030156 8.3032 -0.00226622 7.61754 0.000122989H1.6084C1.06805 0.000122989 0.501651 0.355019 0.501651 1.02427V10.7683C1.26287 12.3923 2.74569 14.1164 4.43156 14.9404V13.0079C4.43156 11.9882 5.19948 11.7604 5.51712 11.7604H7.29388C9.7413 11.7604 11.6093 11.2464 12.8978 10.2185C14.1863 9.19208 14.8305 7.66743 14.8305 5.64454C14.8342 5.06004 14.7664 4.47728 14.6287 3.90923C14.4918 3.3646 14.2707 2.84465 13.9737 2.36812ZM10.472 7.37239C10.2645 7.7325 9.95501 8.02309 9.58267 8.20762C9.17909 8.40015 8.74312 8.51566 8.29718 8.54819C7.81152 8.59147 7.31 8.61318 6.79262 8.61326H5.10417C4.69114 8.61326 4.43156 8.27703 4.43156 7.78103V3.79723C4.43156 3.35045 4.72283 3.16302 5.07209 3.16302H6.79262C7.35308 3.16302 7.87867 3.17919 8.36941 3.21155C8.81109 3.2317 9.24484 3.33642 9.64712 3.52005C10.0057 3.69073 10.3024 3.96847 10.4965 4.31494C10.701 4.67126 10.8032 5.17412 10.8034 5.82351C10.8034 6.48287 10.6929 6.99916 10.472 7.37239ZM4.43156 15.5701C2.57739 14.8293 1.33434 13.9454 0.501651 13.0693V17.7733C0.501651 17.7733 0.433079 18.5404 1.17975 18.5404H3.80139C4.52055 18.5404 4.43186 17.7733 4.43186 17.7733V15.5701H4.43156ZM41.5853 5.12614H39.2325C38.7543 5.12614 38.4393 5.32713 38.2496 5.853C38.06 6.37887 35.5661 13.3246 35.5661 13.3246C35.5661 13.3246 33.1805 6.52233 32.9928 5.99563C32.8051 5.46892 32.4968 5.12614 31.9414 5.12614H29.7795C29.0168 5.12614 29.0168 5.72523 29.1114 5.96279C29.1881 6.15479 32.1487 14.2696 33.2763 17.3609C33.5422 18.0908 33.6472 18.3104 33.6554 18.5808C33.6637 18.8512 33.3888 19.4189 33.1988 19.7447C33.1116 19.8933 33.0114 20.0341 32.8995 20.1653C35.1101 19.5034 37.6579 17.1017 38.9755 14.4999C40.2784 10.8739 41.9965 6.08401 42.071 5.83898C42.1908 5.4421 42.1896 5.12614 41.5853 5.12614ZM31.1961 20.8552C30.9918 20.8517 30.7879 20.837 30.5853 20.8111C30.3373 20.7783 29.8733 20.8246 29.8733 21.231V23.0477C29.8733 23.741 30.2048 23.7873 30.3872 23.8283C30.9363 23.9428 31.4962 23.9969 32.057 23.9897C32.8003 23.9897 33.447 23.8545 33.9973 23.5841C34.5529 23.3091 35.048 22.9259 35.4534 22.4568C35.9004 21.9346 36.2781 21.3569 36.5773 20.738C36.9057 20.073 37.221 19.3404 37.5232 18.5403C37.5232 18.5403 37.6527 18.1787 37.866 17.5863C37.217 18.2414 34.1581 21.1421 31.1961 20.8552ZM27.6627 7.28271C27.535 6.97908 27.3606 6.69729 27.1459 6.44759C26.9318 6.20789 26.6869 5.99779 26.4174 5.82283C26.1266 5.63376 25.8181 5.47349 25.4963 5.34427C25.1676 5.21593 24.8296 5.11302 24.4852 5.03647C24.0937 4.95072 23.6964 4.89381 23.2966 4.86618C22.8649 4.83403 22.3795 4.81782 21.8406 4.81757C18.2763 4.81757 16.2467 5.9441 15.7519 8.19718C15.591 8.89631 16.2826 8.93737 16.2826 8.93737H18.4752C19.0477 8.93737 19.023 8.75292 19.3008 8.23528C19.4009 7.9536 19.5809 7.7072 19.8189 7.52629C20.2397 7.20213 20.8704 7.04002 21.7111 7.03997C22.52 7.03997 23.1075 7.19659 23.474 7.50984C23.8404 7.82309 24.056 8.2989 24.121 8.93737C24.121 9.67772 23.89 10.1717 22.9951 10.1717C20.8132 10.0924 18.4686 10.3393 17.1481 11.0964C15.8275 11.8535 15.081 13.3336 15.081 14.9232C15.081 15.5716 15.1969 16.1393 15.4288 16.6264C15.6535 17.1038 15.9857 17.523 16.3994 17.8507C16.8383 18.1931 17.3414 18.444 17.8789 18.5888C18.4899 18.7563 19.1211 18.8384 19.7546 18.8326C20.7036 18.8326 21.542 18.7136 22.2698 18.4756C22.9975 18.238 24.1236 17.4546 24.267 17.3403V17.7579C24.267 18.1717 24.393 18.5408 24.8867 18.5408H27.4365C27.9526 18.5408 28.0674 18.1717 28.0674 17.7176V9.86225C28.0719 9.37394 28.0395 8.88602 27.9706 8.40259C27.9158 8.01775 27.8124 7.64145 27.6627 7.28271ZM24.1858 14.9845C24.1858 14.9845 23.5274 16.3522 21.1775 16.3522C20.5309 16.3522 20.0054 16.2063 19.6007 15.9145C19.196 15.6227 18.9938 15.1685 18.9941 14.5519C18.9941 13.7512 19.323 13.1859 19.981 12.8562C20.6383 12.5268 21.9543 12.3386 22.9405 12.3617C23.9266 12.3848 24.1858 13.0079 24.1858 13.4382V14.9848V14.9845Z" fill="#333333"/>
</g>
<defs>
<linearGradient id="paint0_linear_13604_16137" x1="95.4935" y1="7.55754" x2="90.4573" y2="37.9748" gradientUnits="userSpaceOnUse">
<stop offset="0.47231" stop-color="#00CCCC"/>
<stop offset="1" stop-color="#3399FF"/>
</linearGradient>
<clipPath id="clip0_13604_16137">
<rect width="82.2857" height="24" fill="white" transform="translate(0.5)"/>
</clipPath>
</defs>
</svg>
