<svg width="168" height="24" viewBox="0 0 168 24" fill="none" xmlns="http://www.w3.org/2000/svg">
<path d="M1.35575 11.8545V15.8991H0V5.56766H3.79186C4.91695 5.56766 5.79724 5.85623 6.43275 6.43335C7.07297 7.01047 7.39307 7.77446 7.39307 8.72529C7.39307 9.72816 7.08003 10.5016 6.45393 11.0456C5.83255 11.5849 4.94048 11.8545 3.77774 11.8545H1.35575ZM1.35575 10.7405H3.79186C4.51681 10.7405 5.07229 10.5702 5.45831 10.2296C5.84432 9.88427 6.03732 9.38757 6.03732 8.73948C6.03732 8.12451 5.84432 7.63254 5.45831 7.26356C5.07229 6.89458 4.5427 6.70299 3.86954 6.6888H1.35575V10.7405Z" fill="#333333"/>
<path d="M8.47344 11.9894C8.47344 11.2372 8.61937 10.5607 8.91123 9.95996C9.2078 9.35918 9.61735 8.89559 10.1399 8.56918C10.6671 8.24278 11.2673 8.07957 11.9405 8.07957C12.9808 8.07957 13.8211 8.44146 14.4613 9.16523C15.1063 9.889 15.4287 10.8517 15.4287 12.0532V12.1455C15.4287 12.8929 15.2851 13.5646 14.998 14.1607C14.7155 14.752 14.3083 15.2132 13.7764 15.5443C13.2492 15.8755 12.6419 16.0411 11.9546 16.0411C10.919 16.0411 10.0787 15.6792 9.43376 14.9554C8.79354 14.2316 8.47344 13.2737 8.47344 12.0816V11.9894ZM9.78682 12.1455C9.78682 12.997 9.98218 13.6805 10.3729 14.1961C10.7683 14.7118 11.2956 14.9696 11.9546 14.9696C12.6184 14.9696 13.1456 14.7094 13.5363 14.1891C13.927 13.664 14.1224 12.9307 14.1224 11.9894C14.1224 11.1473 13.9223 10.4661 13.5222 9.94577C13.1268 9.42068 12.5995 9.15813 11.9405 9.15813C11.2956 9.15813 10.7754 9.41595 10.38 9.93158C9.98453 10.4472 9.78682 11.1852 9.78682 12.1455Z" fill="#333333"/>
<path d="M23.8315 14.0897L25.3003 8.22149H26.6066L24.3823 15.8991H23.3231L21.466 10.0806L19.6584 15.8991H18.5992L16.382 8.22149H17.6812L19.1853 13.9691L20.9647 8.22149H22.0168L23.8315 14.0897Z" fill="#333333"/>
<path d="M31.1116 16.0411C30.076 16.0411 29.2334 15.7005 28.5837 15.0193C27.9341 14.3333 27.6093 13.418 27.6093 12.2732V12.0319C27.6093 11.2703 27.7529 10.5915 28.04 9.99544C28.3319 9.39466 28.7367 8.92634 29.2545 8.59047C29.7771 8.24987 30.342 8.07957 30.9492 8.07957C31.9425 8.07957 32.7145 8.40835 33.2653 9.06589C33.8161 9.72343 34.0915 10.6648 34.0915 11.89V12.4364H28.9156C28.9344 13.1933 29.1533 13.8059 29.5723 14.2742C29.996 14.7378 30.5326 14.9696 31.1822 14.9696C31.6436 14.9696 32.0343 14.875 32.3544 14.6858C32.6745 14.4965 32.9546 14.2458 33.1947 13.9336L33.9926 14.558C33.3524 15.5467 32.3921 16.0411 31.1116 16.0411ZM30.9492 9.15813C30.422 9.15813 29.9795 9.35209 29.6217 9.73999C29.264 10.1232 29.0427 10.6624 28.958 11.3578H32.7851V11.2585C32.7475 10.5915 32.5686 10.0759 32.2485 9.71161C31.9284 9.34263 31.4953 9.15813 30.9492 9.15813Z" fill="#333333"/>
<path d="M39.3026 9.39939C39.1049 9.36628 38.8907 9.34972 38.6601 9.34972C37.8033 9.34972 37.2219 9.71634 36.9159 10.4496V15.8991H35.6096V8.22149H36.8806L36.9018 9.10846C37.3302 8.42254 37.9375 8.07957 38.7236 8.07957C38.9778 8.07957 39.1708 8.11269 39.3026 8.17892V9.39939Z" fill="#333333"/>
<path d="M43.5393 16.0411C42.5037 16.0411 41.6611 15.7005 41.0114 15.0193C40.3618 14.3333 40.037 13.418 40.037 12.2732V12.0319C40.037 11.2703 40.1806 10.5915 40.4677 9.99544C40.7596 9.39466 41.1644 8.92634 41.6822 8.59047C42.2048 8.24987 42.7697 8.07957 43.3769 8.07957C44.3702 8.07957 45.1422 8.40835 45.693 9.06589C46.2438 9.72343 46.5192 10.6648 46.5192 11.89V12.4364H41.3433C41.3621 13.1933 41.581 13.8059 42 14.2742C42.4237 14.7378 42.9603 14.9696 43.61 14.9696C44.0713 14.9696 44.462 14.875 44.7821 14.6858C45.1022 14.4965 45.3823 14.2458 45.6224 13.9336L46.4203 14.558C45.7801 15.5467 44.8198 16.0411 43.5393 16.0411ZM43.3769 9.15813C42.8497 9.15813 42.4072 9.35209 42.0494 9.73999C41.6917 10.1232 41.4704 10.6624 41.3857 11.3578H45.2128V11.2585C45.1752 10.5915 44.9963 10.0759 44.6762 9.71161C44.3561 9.34263 43.923 9.15813 43.3769 9.15813Z" fill="#333333"/>
<path d="M47.7196 11.9965C47.7196 10.8186 47.9973 9.87244 48.5528 9.15813C49.1083 8.43909 49.8356 8.07957 50.7347 8.07957C51.6291 8.07957 52.3376 8.38706 52.8601 9.00203V5H54.1664V15.8991H52.966L52.9025 15.076C52.38 15.7194 51.6527 16.0411 50.7206 16.0411C49.8356 16.0411 49.113 15.6768 48.5528 14.9483C47.9973 14.2198 47.7196 13.269 47.7196 12.0958V11.9965ZM49.0259 12.1455C49.0259 13.0159 49.2048 13.6971 49.5625 14.1891C49.9203 14.681 50.4146 14.927 51.0454 14.927C51.8739 14.927 52.4788 14.5533 52.8601 13.8059V10.2793C52.4694 9.5555 51.8692 9.19361 51.0595 9.19361C50.4193 9.19361 49.9203 9.44197 49.5625 9.93867C49.2048 10.4354 49.0259 11.171 49.0259 12.1455Z" fill="#333333"/>
<path d="M66.2552 12.1455C66.2552 13.3186 65.9869 14.2624 65.4502 14.9767C64.9136 15.6863 64.1933 16.0411 63.2895 16.0411C62.3245 16.0411 61.5783 15.6981 61.0511 15.0122L60.9876 15.8991H59.7872V5H61.0935V9.06589C61.6207 8.40835 62.348 8.07957 63.2754 8.07957C64.2028 8.07957 64.9301 8.432 65.4573 9.13685C65.9892 9.8417 66.2552 10.8067 66.2552 12.0319V12.1455ZM64.9489 11.9965C64.9489 11.1024 64.7771 10.4117 64.4334 9.92448C64.0898 9.43724 63.5955 9.19361 62.9506 9.19361C62.0891 9.19361 61.4701 9.59571 61.0935 10.3999V13.7207C61.4936 14.5249 62.1174 14.927 62.9647 14.927C63.5908 14.927 64.078 14.6834 64.4264 14.1961C64.7747 13.7089 64.9489 12.9757 64.9489 11.9965Z" fill="#333333"/>
<path d="M70.3225 13.9762L72.1019 8.22149H73.5L70.4284 17.0841C69.9529 18.3614 69.1974 19 68.1617 19L67.9146 18.9787L67.4274 18.8865V17.8221L67.7804 17.8505C68.2229 17.8505 68.5666 17.7606 68.8114 17.5808C69.0609 17.4011 69.2656 17.0723 69.4257 16.5945L69.7152 15.814L66.9896 8.22149H68.4159L70.3225 13.9762Z" fill="#333333"/>
<g clip-path="url(#clip0_13604:16135)">
<path fill-rule="evenodd" clip-rule="evenodd" d="M167.323 9.94283C167.906 10.7769 167.965 12.0914 167.346 13.1102C166.793 14.02 163.488 17.5115 162.412 18.6335C161.479 19.6081 160.221 20.584 158.982 20.584H133.042C129.537 20.584 129.325 19.3954 129.325 16.7082V5.80736C129.325 3.06283 130.135 2.26953 132.529 2.26953H158.982C160.221 2.26953 161.323 2.90191 162.589 4.18953C163.664 5.28218 166.876 9.30116 167.323 9.94283Z" fill="#33CCCC"/>
<path fill-rule="evenodd" clip-rule="evenodd" d="M167.323 9.94283C167.906 10.7769 167.965 12.0914 167.346 13.1102C166.793 14.02 163.488 17.5115 162.412 18.6335C161.479 19.6081 160.221 20.584 158.982 20.584H133.042C129.537 20.584 129.325 19.3954 129.325 16.7082V5.80736C129.325 3.06283 130.135 2.26953 132.529 2.26953H158.982C160.221 2.26953 161.323 2.90191 162.589 4.18953C163.664 5.28218 166.876 9.30116 167.323 9.94283Z" fill="url(#paint0_linear_13604:16135)"/>
<path fill-rule="evenodd" clip-rule="evenodd" d="M135.205 6.48345V6.41168C135.205 6.06121 135.176 5.71477 134.602 5.71477H132.434C131.93 5.71477 131.898 5.9934 131.898 6.42631V9.30715C132.954 7.7982 134.124 7.09709 135.205 6.48345ZM149.748 16.8931V16.7384H149.75V9.80468C149.75 6.89694 148.471 5.44322 145.915 5.44353C145.206 5.43687 144.51 5.62724 143.904 5.9934C143.295 6.36018 142.71 6.87251 142.149 7.53039C141.874 6.81547 141.458 6.28894 140.902 5.9508C140.347 5.61267 139.626 5.44358 138.742 5.44353C137.718 5.44353 136.528 5.80216 135.685 6.4961C135.496 6.68513 131.898 9.51706 131.898 12.4256V16.8646C131.898 17.0058 131.83 17.5414 132.43 17.5414H134.687C135.388 17.5414 135.32 17.082 135.32 16.8931V9.71348C135.701 9.20818 136.479 7.96025 137.743 7.96025C138.229 7.96025 138.578 8.12447 138.792 8.4529C139.005 8.78134 139.113 9.33202 139.113 10.1049V15.7126H139.111V16.8648C139.111 17.006 139.043 17.5416 139.643 17.5416H141.871C142.573 17.5416 142.504 17.0822 142.504 16.8932V16.7385H142.507V9.71378C142.915 9.20848 143.728 7.96056 144.93 7.96056C145.424 7.96056 145.78 8.12478 145.999 8.45321C146.218 8.78164 146.327 9.33232 146.327 10.1052V15.7129H146.325V16.8651C146.325 17.0063 146.257 17.5419 146.857 17.5419H149.115C149.817 17.5416 149.748 17.082 149.748 16.8931ZM162.177 14.074C161.375 16.2329 159.452 17.4393 157.071 17.4393C153.621 17.4393 151.342 15.0885 151.342 11.5626C151.342 8.07926 153.708 5.55439 156.963 5.55439C160.184 5.55439 162.344 7.79728 162.481 11.4102C162.499 11.8719 162.364 12.2797 161.787 12.2797H154.467C154.51 14.2171 155.444 15.2621 157.093 15.2621C158.099 15.2621 158.694 14.8285 159.213 13.9788C159.439 13.609 159.901 13.6296 159.901 13.6296H161.787C162.095 13.6294 162.231 13.9302 162.177 14.0738V14.074ZM156.963 7.79591C155.595 7.79591 154.64 8.75355 154.467 10.3216H159.372C159.241 8.95005 158.503 7.79591 156.963 7.79591Z" fill="white"/>
<path fill-rule="evenodd" clip-rule="evenodd" d="M98.9737 2.36812C98.6837 1.90603 98.3075 1.50406 97.8657 1.18412C97.4239 0.8737 96.9387 0.630305 96.4257 0.461837C95.856 0.276253 95.2675 0.153992 94.671 0.0972653C93.9885 0.030156 93.3032 -0.00226622 92.6175 0.000122989H86.6084C86.0681 0.000122989 85.5017 0.355019 85.5017 1.02427V10.7683C86.2629 12.3923 87.7457 14.1164 89.4316 14.9404V13.0079C89.4316 11.9882 90.1995 11.7604 90.5171 11.7604H92.2939C94.7413 11.7604 96.6093 11.2464 97.8978 10.2185C99.1863 9.19208 99.8305 7.66743 99.8305 5.64454C99.8342 5.06004 99.7664 4.47728 99.6287 3.90923C99.4918 3.3646 99.2707 2.84465 98.9737 2.36812ZM95.472 7.37239C95.2645 7.7325 94.955 8.02309 94.5827 8.20762C94.1791 8.40015 93.7431 8.51566 93.2972 8.54819C92.8115 8.59147 92.31 8.61318 91.7926 8.61326H90.1042C89.6911 8.61326 89.4316 8.27703 89.4316 7.78103V3.79723C89.4316 3.35045 89.7228 3.16302 90.0721 3.16302H91.7926C92.3531 3.16302 92.8787 3.17919 93.3694 3.21155C93.8111 3.2317 94.2448 3.33642 94.6471 3.52005C95.0057 3.69073 95.3024 3.96847 95.4965 4.31494C95.701 4.67126 95.8032 5.17412 95.8034 5.82351C95.8034 6.48287 95.6929 6.99916 95.472 7.37239ZM89.4316 15.5701C87.5774 14.8293 86.3343 13.9454 85.5017 13.0693V17.7733C85.5017 17.7733 85.4331 18.5404 86.1797 18.5404H88.8014C89.5205 18.5404 89.4319 17.7733 89.4319 17.7733V15.5701H89.4316ZM126.585 5.12614H124.232C123.754 5.12614 123.439 5.32713 123.25 5.853C123.06 6.37887 120.566 13.3246 120.566 13.3246C120.566 13.3246 118.181 6.52233 117.993 5.99563C117.805 5.46892 117.497 5.12614 116.941 5.12614H114.779C114.017 5.12614 114.017 5.72523 114.111 5.96279C114.188 6.15479 117.149 14.2696 118.276 17.3609C118.542 18.0908 118.647 18.3104 118.655 18.5808C118.664 18.8512 118.389 19.4189 118.199 19.7447C118.112 19.8933 118.011 20.0341 117.899 20.1653C120.11 19.5034 122.658 17.1017 123.976 14.4999C125.278 10.8739 126.996 6.08401 127.071 5.83898C127.191 5.4421 127.19 5.12614 126.585 5.12614ZM116.196 20.8552C115.992 20.8517 115.788 20.837 115.585 20.8111C115.337 20.7783 114.873 20.8246 114.873 21.231V23.0477C114.873 23.741 115.205 23.7873 115.387 23.8283C115.936 23.9428 116.496 23.9969 117.057 23.9897C117.8 23.9897 118.447 23.8545 118.997 23.5841C119.553 23.3091 120.048 22.9259 120.453 22.4568C120.9 21.9346 121.278 21.3569 121.577 20.738C121.906 20.073 122.221 19.3404 122.523 18.5403C122.523 18.5403 122.653 18.1787 122.866 17.5863C122.217 18.2414 119.158 21.1421 116.196 20.8552ZM112.663 7.28271C112.535 6.97908 112.361 6.69729 112.146 6.44759C111.932 6.20789 111.687 5.99779 111.417 5.82283C111.127 5.63376 110.818 5.47349 110.496 5.34428C110.168 5.21593 109.83 5.11302 109.485 5.03647C109.094 4.95072 108.696 4.89381 108.297 4.86618C107.865 4.83403 107.38 4.81782 106.841 4.81757C103.276 4.81757 101.247 5.9441 100.752 8.19718C100.591 8.89631 101.283 8.93737 101.283 8.93737H103.475C104.048 8.93737 104.023 8.75292 104.301 8.23528C104.401 7.9536 104.581 7.7072 104.819 7.52629C105.24 7.20213 105.87 7.04002 106.711 7.03997C107.52 7.03997 108.108 7.19659 108.474 7.50984C108.84 7.82309 109.056 8.2989 109.121 8.93737C109.121 9.67772 108.89 10.1717 107.995 10.1717C105.813 10.0924 103.469 10.3393 102.148 11.0964C100.828 11.8535 100.081 13.3336 100.081 14.9232C100.081 15.5716 100.197 16.1393 100.429 16.6264C100.654 17.1038 100.986 17.523 101.399 17.8507C101.838 18.1931 102.341 18.444 102.879 18.5888C103.49 18.7563 104.121 18.8384 104.755 18.8326C105.704 18.8326 106.542 18.7136 107.27 18.4756C107.998 18.238 109.124 17.4546 109.267 17.3403V17.7579C109.267 18.1717 109.393 18.5408 109.887 18.5408H112.437C112.953 18.5408 113.067 18.1717 113.067 17.7176V9.86225C113.072 9.37394 113.04 8.88602 112.971 8.40259C112.916 8.01775 112.812 7.64145 112.663 7.28271ZM109.186 14.9845C109.186 14.9845 108.527 16.3522 106.177 16.3522C105.531 16.3522 105.005 16.2063 104.601 15.9145C104.196 15.6227 103.994 15.1685 103.994 14.5519C103.994 13.7512 104.323 13.1859 104.981 12.8562C105.638 12.5268 106.954 12.3386 107.94 12.3617C108.927 12.3848 109.186 13.0079 109.186 13.4382V14.9848V14.9845Z" fill="#333333"/>
</g>
<defs>
<linearGradient id="paint0_linear_13604:16135" x1="180.493" y1="7.55754" x2="175.457" y2="37.9748" gradientUnits="userSpaceOnUse">
<stop offset="0.47231" stop-color="#00CCCC"/>
<stop offset="1" stop-color="#3399FF"/>
</linearGradient>
<clipPath id="clip0_13604:16135">
<rect width="82.2857" height="24" fill="white" transform="translate(85.5)"/>
</clipPath>
</defs>
</svg>
